<svg height="42" viewBox="0 0 42 42" width="42" xmlns="http://www.w3.org/2000/svg" xmlns:xlink="http://www.w3.org/1999/xlink"><linearGradient id="a" x1="92.17183%" x2="15.212121%" y1="-5.358285%" y2="96.693424%"><stop offset="0" stop-color="#7f34cf"/><stop offset=".209989162" stop-color="#c527a1"/><stop offset=".421829841" stop-color="#f12679"/><stop offset=".600546423" stop-color="#fa3563"/><stop offset=".794797688" stop-color="#f95354"/><stop offset="1" stop-color="#fea730"/></linearGradient><g fill="none" fill-rule="evenodd" transform=""><rect fill="url(#a)" height="42" rx="21" width="42"/><path d="m5 0c-2.761 0-5 2.239-5 5v8c0 2.761 2.239 5 5 5h8c2.761 0 5-2.239 5-5v-8c0-2.761-2.239-5-5-5zm10 2c.552 0 1 .448 1 1s-.448 1-1 1-1-.448-1-1 .448-1 1-1zm-6 2c2.761 0 5 2.239 5 5s-2.239 5-5 5-5-2.239-5-5 2.239-5 5-5zm0 2c-1.65685425 0-3 1.34314575-3 3 0 1.6568542 1.34314575 3 3 3 1.6568542 0 3-1.3431458 3-3 0-1.65685425-1.3431458-3-3-3z" fill="#fff" fill-rule="nonzero" transform="translate(12 12)"/></g></svg>