<svg xmlns="http://www.w3.org/2000/svg" width="300" height="180" viewBox="0 0 300 180">
  <path fill="#CC475E" d="M103,14 L195,14 C196.104569,14 197,14.8954305 197,16 L197,138.000073 C197,139.104642 196.104569,140.000073 195,140.000073 L103,140.000073 C101.895431,140.000073 101,139.104642 101,138.000073 L101,16 C101,14.8954305 101.895431,14 103,14 Z"/>
  <path fill="#FF5975" d="M84.9999826,32 L155,32 L179,56 L179,156.000125 C179,157.104694 178.104569,158.000125 177,158.000125 L84.9999826,158.000125 C83.8954131,158.000125 82.9999826,157.104694 82.9999826,156.000125 L82.9999826,34 C82.9999826,32.8954305 83.8954131,32 84.9999826,32 Z"/>
  <path fill="#FFFFFF" d="M155,32 L179,56 L156,56 C155.447715,56 155,55.5522847 155,55 L155,32 Z" opacity=".3"/>
  <rect width="60" height="2" x="101" y="84" fill="#FFFFFF"/>
  <rect width="28" height="4" x="101" y="70" fill="#FFFFFF"/>
  <rect width="60" height="2" x="101" y="96" fill="#FFFFFF"/>
  <rect width="26" height="2" x="135" y="108" fill="#FFFFFF"/>
  <rect width="26" height="2" x="135" y="120" fill="#FFFFFF"/>
  <rect width="26" height="2" x="135" y="132" fill="#FFFFFF"/>
  <path fill="#CC475E" d="M74,107 L128,107 C128.552285,107 129,107.447715 129,108 L129,134 C129,134.552285 128.552285,135 128,135 L74,135 C73.4477153,135 73,134.552285 73,134 L73,108 C73,107.447715 73.4477153,107 74,107 Z"/>
  <path fill="#FFFFFF" fill-rule="nonzero" d="M82,128 L82,112 L86.886392,112 C90.3258427,112 92.8876404,113.223242 92.8876404,116.941896 C92.8876404,120.489297 90.3258427,122.12844 86.9812734,122.12844 L84.7515605,122.12844 L84.7515605,128 L82,128 Z M84.7515605,119.853211 L86.7677903,119.853211 C89.0686642,119.853211 90.1835206,118.899083 90.1835206,116.941896 C90.1835206,114.93578 88.9737828,114.275229 86.6729089,114.275229 L84.7515605,114.275229 L84.7515605,119.853211 Z M95.8052434,128 L95.8052434,112 L99.9563046,112 C104.700375,112 107.499376,114.642202 107.499376,119.926606 C107.499376,125.235474 104.700375,128 100.098627,128 L95.8052434,128 Z M98.556804,125.700306 L99.7665418,125.700306 C102.897628,125.700306 104.676654,123.865443 104.676654,119.926606 C104.676654,116.012232 102.897628,114.299694 99.7665418,114.299694 L98.556804,114.299694 L98.556804,125.700306 Z M110.630462,128 L110.630462,112 L120,112 L120,114.397554 L113.382022,114.397554 L113.382022,118.923547 L119.027466,118.923547 L119.027466,121.321101 L113.382022,121.321101 L113.382022,128 L110.630462,128 Z"/>
  <path fill="#CC475E" d="M147,90.8571429 C147,128.004375 161.333333,153.718661 190,168 C218.666667,153.714286 233,128 233,90.8571429 L190,68 L147,90.8571429 Z"/>
  <path fill="#FFFFFF" fill-rule="nonzero" d="M189.999864,162.753935 C215.056185,149.751658 227.699532,126.830607 227.994708,93.678848 L190,73.2702621 L152.005291,93.6788487 C152.300431,126.834533 164.943713,149.755538 189.999864,162.753935 Z M150,92.4857143 L190,71 L230,92.4857143 C230,127.4 216.666667,151.571429 190,165 C163.333333,151.575541 150,127.404113 150,92.4857143 Z"/>
  <path fill="#FFFFFF" fill-rule="nonzero" d="M178.66941,108.428571 C178.803344,102.093244 183.824941,97 190,97 C196.175059,97 201.196656,102.093244 201.33059,108.428571 L205,108.428571 C206.104569,108.428571 207,109.324002 207,110.428571 L207,130 C207,131.104569 206.104569,132 205,132 L175,132 C173.895431,132 173,131.104569 173,130 L173,110.428571 C173,109.324002 173.895431,108.428571 175,108.428571 L178.66941,108.428571 Z M181.5,108.428571 L198.5,108.428571 C198.5,103.694702 194.69442,99.8571429 190,99.8571429 C185.30558,99.8571429 181.5,103.694702 181.5,108.428571 Z M190,114.142857 C189.413197,114.142857 188.9375,114.618555 188.9375,115.205357 L188.9375,123.794643 C188.9375,124.381445 189.413197,124.857143 190,124.857143 C190.586803,124.857143 191.0625,124.381445 191.0625,123.794643 L191.0625,115.205357 C191.0625,114.618555 190.586803,114.142857 190,114.142857 Z"/>
  <path fill="#FF5975" fill-rule="nonzero" d="M237 151C237.552285 151 238 150.552285 238 150 238 149.447715 237.552285 149 237 149 236.447715 149 236 149.447715 236 150 236 150.552285 236.447715 151 237 151zM237 152C235.895431 152 235 151.104569 235 150 235 148.895431 235.895431 148 237 148 238.104569 148 239 148.895431 239 150 239 151.104569 238.104569 152 237 152zM233 66C233.552285 66 234 65.5522847 234 65 234 64.4477153 233.552285 64 233 64 232.447715 64 232 64.4477153 232 65 232 65.5522847 232.447715 66 233 66zM233 67C231.895431 67 231 66.1045695 231 65 231 63.8954305 231.895431 63 233 63 234.104569 63 235 63.8954305 235 65 235 66.1045695 234.104569 67 233 67zM56 118C56.5522847 118 57 117.552285 57 117 57 116.447715 56.5522847 116 56 116 55.4477153 116 55 116.447715 55 117 55 117.552285 55.4477153 118 56 118zM56 119C54.8954305 119 54 118.104569 54 117 54 115.895431 54.8954305 115 56 115 57.1045695 115 58 115.895431 58 117 58 118.104569 57.1045695 119 56 119z"/>
  <polygon fill="#FF5975" points="247 137 247 135 248 135 248 137 250 137 250 138 248 138 248 140 247 140 247 138 245 138 245 137"/>
  <path fill="#FF5975" fill-rule="nonzero" d="M62,29 C62.5522847,29 63,28.5522847 63,28 C63,27.4477153 62.5522847,27 62,27 C61.4477153,27 61,27.4477153 61,28 C61,28.5522847 61.4477153,29 62,29 Z M62,30 C60.8954305,30 60,29.1045695 60,28 C60,26.8954305 60.8954305,26 62,26 C63.1045695,26 64,26.8954305 64,28 C64,29.1045695 63.1045695,30 62,30 Z"/>
  <path fill="#FF5975" fill-rule="nonzero" d="M79.8062676 11.1937324C80.0645775 11.4520422 80.0645775 11.8708451 79.8062676 12.1291549L78.4031338 13.5322887C78.144824 13.7905985 77.7260211 13.7905985 77.4677113 13.5322887 77.2094015 13.2739789 77.2094015 12.855176 77.4677113 12.5968662L78.8708451 11.1937324C79.1291549 10.9354225 79.5479578 10.9354225 79.8062676 11.1937324L79.8062676 11.1937324zM76.5322887 14.4677113C76.7905985 14.7260211 76.7905985 15.144824 76.5322887 15.4031338L75.1291549 16.8062676C74.8708451 17.0645775 74.4520422 17.0645775 74.1937324 16.8062676 73.9354225 16.5479578 73.9354225 16.1291549 74.1937324 15.8708451L75.5968662 14.4677113C75.855176 14.2094015 76.2739789 14.2094015 76.5322887 14.4677113zM79.8062676 16.8062676C79.5479578 17.0645775 79.1291549 17.0645775 78.8708451 16.8062676L77.4677113 15.4031338C77.2094015 15.144824 77.2094015 14.7260211 77.4677113 14.4677113 77.7260211 14.2094015 78.144824 14.2094015 78.4031338 14.4677113L79.8062676 15.8708451C80.0645775 16.1291549 80.0645775 16.5479578 79.8062676 16.8062676zM76.5322887 13.5322887C76.2739789 13.7905985 75.855176 13.7905985 75.5968662 13.5322887L74.1937324 12.1291549C73.9354225 11.8708451 73.9354225 11.4520422 74.1937324 11.1937324 74.4520422 10.9354225 74.8708451 10.9354225 75.1291549 11.1937324L76.5322887 12.5968662C76.7905985 12.855176 76.7905985 13.2739789 76.5322887 13.5322887zM49.8062676 95.1937324C50.0645775 95.4520422 50.0645775 95.8708451 49.8062676 96.1291549L48.4031338 97.5322887C48.144824 97.7905985 47.7260211 97.7905985 47.4677113 97.5322887 47.2094015 97.2739789 47.2094015 96.855176 47.4677113 96.5968662L48.8708451 95.1937324C49.1291549 94.9354225 49.5479578 94.9354225 49.8062676 95.1937324L49.8062676 95.1937324zM46.5322887 98.4677113C46.7905985 98.7260211 46.7905985 99.144824 46.5322887 99.4031338L45.1291549 100.806268C44.8708451 101.064577 44.4520422 101.064577 44.1937324 100.806268 43.9354225 100.547958 43.9354225 100.129155 44.1937324 99.8708451L45.5968662 98.4677113C45.855176 98.2094015 46.2739789 98.2094015 46.5322887 98.4677113zM49.8062676 100.806268C49.5479578 101.064577 49.1291549 101.064577 48.8708451 100.806268L47.4677113 99.4031338C47.2094015 99.144824 47.2094015 98.7260211 47.4677113 98.4677113 47.7260211 98.2094015 48.144824 98.2094015 48.4031338 98.4677113L49.8062676 99.8708451C50.0645775 100.129155 50.0645775 100.547958 49.8062676 100.806268zM46.5322887 97.5322887C46.2739789 97.7905985 45.855176 97.7905985 45.5968662 97.5322887L44.1937324 96.1291549C43.9354225 95.8708451 43.9354225 95.4520422 44.1937324 95.1937324 44.4520422 94.9354225 44.8708451 94.9354225 45.1291549 95.1937324L46.5322887 96.5968662C46.7905985 96.855176 46.7905985 97.2739789 46.5322887 97.5322887z"/>
</svg>
